<?xml version="1.0" encoding="UTF-8"?>
<svg width="12px" height="7px" viewBox="0 0 12 7" version="1.1" xmlns="http://www.w3.org/2000/svg" xmlns:xlink="http://www.w3.org/1999/xlink">
    <title>Fill 1</title>
    <g id="Page-1" stroke="none" stroke-width="1" fill="none" fill-rule="evenodd">
        <g id="iPhone-11-Pro-Copy" transform="translate(-316.000000, -347.000000)" fill="#FCDE43">
            <path d="M321.989873,351.943191 C322.965039,350.941197 323.888995,349.99073 324.81421,349.041548 C325.366848,348.474554 325.920281,347.908371 326.47537,347.343812 C326.896109,346.915912 327.396809,346.886024 327.761502,347.262803 C328.104732,347.61747 328.076709,348.148896 327.682535,348.552114 C326.006734,350.265809 324.329211,351.977745 322.650428,353.688464 C322.252147,354.09432 321.768738,354.108858 321.367145,353.701312 C319.668621,351.977813 317.97533,350.248836 316.286544,348.515464 C315.90668,348.125567 315.909993,347.600903 316.263822,347.251713 C316.621824,346.898534 317.112719,346.915912 317.501063,347.310813 C318.932013,348.765861 320.359319,350.224493 321.786625,351.683192 C321.848633,351.74662 321.897259,351.823774 321.989873,351.943191" id="Fill-1"></path>
        </g>
    </g>
</svg>