<?xml version="1.0" encoding="UTF-8"?>
<svg width="17px" height="14px" viewBox="0 0 17 14" version="1.1" xmlns="http://www.w3.org/2000/svg" xmlns:xlink="http://www.w3.org/1999/xlink">
    <title>Group 3</title>
    <defs>
        <polygon id="path-1" points="0 0 17 0 17 14 0 14"></polygon>
    </defs>
    <g id="Page-1" stroke="none" stroke-width="1" fill="none" fill-rule="evenodd">
        <g id="Sign-Up" transform="translate(-325.000000, -769.000000)">
            <g id="Group-3" transform="translate(325.000000, 769.000000)">
                <mask id="mask-2" fill="white">
                    <use xlink:href="#path-1"></use>
                </mask>
                <g id="Clip-2"></g>
                <path d="M14.0886077,7.86084755 L13.7973788,7.86084755 C9.52264542,7.86084755 5.24833407,7.85955447 0.97360065,7.86343372 C0.695033899,7.86343372 0.444745894,7.81171041 0.248060885,7.6005069 C0.00705843754,7.34059727 -0.0642715336,7.03111948 0.0602393628,6.69922825 C0.189393038,6.3544062 0.445167965,6.15699557 0.815746158,6.13544419 C0.895095475,6.13070289 0.974866863,6.13328905 1.05463825,6.13328905 L13.7986451,6.13328905 L14.0856532,6.13328905 C14.0033494,6.04406635 13.9539671,5.98717071 13.9012083,5.93329226 C12.4746088,4.47641908 11.0471653,3.02083898 9.62141,1.56396579 C9.26602635,1.20104058 9.19258603,0.823891455 9.39855659,0.446742332 C9.65137703,-0.0161812773 10.2355231,-0.142903383 10.6483083,0.178212156 C10.7217487,0.235107796 10.7888579,0.301917069 10.8542789,0.368726342 C12.7789219,2.33248795 14.7035649,4.29668058 16.6277859,6.26087321 C17.1245632,6.76862369 17.1241412,7.22508189 16.6260976,7.73369442 C14.6930132,9.70736966 12.7595067,11.6814759 10.8255781,13.6542891 C10.4693503,14.0180764 10.1021487,14.0939372 9.73114841,13.8857509 C9.27742226,13.6305826 9.14995687,13.0323163 9.4635555,12.6112024 C9.52348956,12.5306002 9.59439746,12.4577566 9.66446122,12.386206 C11.0767102,10.9435567 12.4893813,9.50220053 13.9020524,8.05998229 C13.9527009,8.00825898 14.0012391,7.9539495 14.0886077,7.86084755" id="Fill-1" fill="#43444C" mask="url(#mask-2)"></path>
            </g>
        </g>
    </g>
</svg>