<svg xmlns="http://www.w3.org/2000/svg" viewBox="0 0 47.83 83.33"><defs><style>.cls-1{fill:#1b1a1b;}</style></defs><title>boldlogoAsset 8</title><g id="Layer_2" data-name="Layer 2"><g id="Layer_1-2" data-name="Layer 1"><path class="cls-1" d="M47.09,38a20.93,20.93,0,0,1,.74,5.52A19.06,19.06,0,0,1,42.66,56.9a16.87,16.87,0,0,1-12.9,5.78H0V34.76H9.6V53.08H29.76a7.74,7.74,0,0,0,5.86-2.65A10.61,10.61,0,0,0,38.23,43a10.53,10.53,0,0,0-2.61-7.43,7.68,7.68,0,0,0-5.86-2.64H16.88v-7.7h9.45a8.73,8.73,0,0,0,6.17-2.29,7.12,7.12,0,0,0,2.3-5.52,7.1,7.1,0,0,0-2.3-5.52,8.69,8.69,0,0,0-6.17-2.3H9.6v12H0V0H26.33A18.16,18.16,0,0,1,39,4.82,15.86,15.86,0,0,1,44.4,16.94a12.76,12.76,0,0,1-.83,4.56,9.41,9.41,0,0,1-5.86,6.3Q45.13,31,47.09,38M42.61,70.14H0V83.33H42.61Z"/></g></g></svg>