<svg xmlns="http://www.w3.org/2000/svg" viewBox="0 0 99.41 183.72"><defs><style>.cls-1{fill:#1b1a1b;}</style></defs><title>boldiconAsset 10</title><g id="Layer_2" data-name="Layer 2"><g id="Layer_1-2" data-name="Layer 1"><path class="cls-1" d="M40.08,61.78a22.42,22.42,0,0,1,8.06,10.41,26.85,26.85,0,0,1,0,19.84,22.62,22.62,0,0,1-8.06,10.41,24.18,24.18,0,0,1-14.33,4.25,24.34,24.34,0,0,1-14.36-4.25A22.68,22.68,0,0,1,3.33,92a27,27,0,0,1,0-19.84,22.48,22.48,0,0,1,8.06-10.41,24.33,24.33,0,0,1,14.36-4.24,24.17,24.17,0,0,1,14.33,4.24m-4.27,5.9a17.33,17.33,0,0,0-10.06-2.9,17.35,17.35,0,0,0-10.08,2.9A15.64,15.64,0,0,0,10,74.86a19.65,19.65,0,0,0-1.33,7.25A19.33,19.33,0,0,0,10,89.32a15.59,15.59,0,0,0,5.65,7.18,17.15,17.15,0,0,0,10.08,2.94A17.13,17.13,0,0,0,35.81,96.5a15.64,15.64,0,0,0,5.64-7.18,19.34,19.34,0,0,0,1.34-7.21,19.66,19.66,0,0,0-1.34-7.25,15.69,15.69,0,0,0-5.64-7.18m23.33-9.07V105.7H91.88V98.46H66.39V58.61ZM2.09,0H21.87a13.66,13.66,0,0,1,9.5,3.62,11.92,11.92,0,0,1,4.08,9.1,9.75,9.75,0,0,1-.62,3.43,7.09,7.09,0,0,1-4.41,4.74,11.48,11.48,0,0,1,7,7.63A15.61,15.61,0,0,1,38,32.67a14.34,14.34,0,0,1-3.88,10.08,12.65,12.65,0,0,1-9.69,4.34H2.09ZM21.87,19a6.57,6.57,0,0,0,4.64-1.73,5.31,5.31,0,0,0,1.72-4.14,5.34,5.34,0,0,0-1.72-4.15,6.57,6.57,0,0,0-4.64-1.73H9.31V19ZM9.31,24.74V39.88H24.45a5.81,5.81,0,0,0,4.4-2,8,8,0,0,0,2-5.58,7.87,7.87,0,0,0-2-5.58,5.75,5.75,0,0,0-4.4-2ZM91.88,18.6h-32v9.9h32Zm-16,97.84A23.63,23.63,0,0,1,99.41,140h0a23.52,23.52,0,0,1-23.54,23.53H59.75V116.44ZM67,123.68v32.64h8.84a16.32,16.32,0,0,0,0-32.64ZM40.7,135H1.91v9.91H40.7ZM.6,183.72a.56.56,0,0,1-.42-.18.58.58,0,0,1-.18-.42v-6.05a.61.61,0,0,1,.17-.42.67.67,0,0,1,.43-.18H2.72a2.32,2.32,0,0,1,1.61.61,2,2,0,0,1,0,3,2,2,0,0,1,.08,3.07,2.28,2.28,0,0,1-1.6.62Zm.6-4.21H2.72a1.12,1.12,0,0,0,.75-.28.88.88,0,0,0,.32-.67.84.84,0,0,0-.31-.64,1.17,1.17,0,0,0-.76-.26H1.2Zm0,3H2.84a1.12,1.12,0,0,0,.76-.27.83.83,0,0,0,0-1.29,1.12,1.12,0,0,0-.75-.26H1.2Zm10.26,1.2a3.53,3.53,0,0,1-2.57-1.07,3.64,3.64,0,0,1,2.57-6.2,3.63,3.63,0,0,1,2.57,6.2,3.51,3.51,0,0,1-2.57,1.07m0-6.07a2.44,2.44,0,1,0,1.73,4.16,2.44,2.44,0,0,0-1.73-4.16m11.13-1.19a.54.54,0,0,0-.41.18.53.53,0,0,0-.17.41v4.08a1.36,1.36,0,0,1-.42,1,1.42,1.42,0,0,1-2,0,1.35,1.35,0,0,1-.41-1v-4.08a.58.58,0,0,0-1-.41.53.53,0,0,0-.17.41v4.08a2.52,2.52,0,0,0,.75,1.83,2.59,2.59,0,0,0,4.42-1.83v-4.08a.57.57,0,0,0-.17-.41.58.58,0,0,0-.42-.18m5.26,6.66a.61.61,0,0,0,.18.43.57.57,0,0,0,.42.17.61.61,0,0,0,.42-.17.61.61,0,0,0,.18-.43v-5.47h1.51a.6.6,0,0,0,.59-.6.59.59,0,0,0-.17-.42.58.58,0,0,0-.42-.18H26.35a.62.62,0,0,0-.6.6.54.54,0,0,0,.18.42.56.56,0,0,0,.42.18h1.5Zm6.46.6a.62.62,0,0,0,.6-.6v-6a.58.58,0,0,0-.18-.42.54.54,0,0,0-.42-.17.57.57,0,0,0-.42.17.61.61,0,0,0-.17.42v6a.6.6,0,0,0,.59.6m10.75-1a.53.53,0,0,1,.18.42.62.62,0,0,1-.59.6.58.58,0,0,1-.43-.18l-.55-.55a3.6,3.6,0,1,1,1.46-2.9,3.54,3.54,0,0,1-.63,2Zm-3.56-.18a2.42,2.42,0,0,0,1.32-.39l-.43-.42a.58.58,0,0,1-.18-.43.6.6,0,0,1,1-.42l.4.4a2.44,2.44,0,0,0-.41-2.89,2.43,2.43,0,1,0-1.72,4.15m11.26-6.06a.58.58,0,0,0-.42.18.57.57,0,0,0-.17.41v4.08a1.42,1.42,0,0,1-2.83,0v-4.08a.57.57,0,0,0-.17-.41.58.58,0,0,0-.42-.18.54.54,0,0,0-.41.18.53.53,0,0,0-.17.41v4.08a2.52,2.52,0,0,0,.75,1.83,2.49,2.49,0,0,0,1.83.76,2.46,2.46,0,0,0,1.83-.76,2.49,2.49,0,0,0,.76-1.83v-4.08a.57.57,0,0,0-.17-.41.54.54,0,0,0-.41-.18m5.05,6.06v-1.84H60a.59.59,0,0,0,.42-.17.58.58,0,0,0,.18-.43.58.58,0,0,0-.18-.42.55.55,0,0,0-.42-.17H57.81v-1.84h3.07a.61.61,0,0,0,.42-.17.61.61,0,0,0,.17-.43.55.55,0,0,0-.17-.42.58.58,0,0,0-.42-.18H57.21a.62.62,0,0,0-.6.6v6.07a.58.58,0,0,0,.18.42.56.56,0,0,0,.42.18h3.67a.58.58,0,0,0,.42-.18.61.61,0,0,0,.17-.42.6.6,0,0,0-.59-.6Zm13.48,1.18a3.61,3.61,0,0,0,1.69-.42.54.54,0,0,0,.2.31.62.62,0,0,0,.37.13h0a.58.58,0,0,0,.43-.18.57.57,0,0,0,.17-.42v-3.21a.54.54,0,0,0-.17-.42.58.58,0,0,0-.43-.18H71a.62.62,0,0,0-.6.6.58.58,0,0,0,.18.43.57.57,0,0,0,.42.17h2v1.33l0,0a2.42,2.42,0,1,1-1.63-4.21,2.3,2.3,0,0,1,1.47.5.56.56,0,0,0,.45.11.54.54,0,0,0,.39-.23.58.58,0,0,0-.11-.83,3.62,3.62,0,1,0-2.2,6.49m11-7.09a.57.57,0,0,0-.44-.13.56.56,0,0,0-.39.22L79.58,179l-1.86-2.33a.58.58,0,0,0-.4-.22.59.59,0,0,0-.44.13.53.53,0,0,0-.21.4.55.55,0,0,0,.12.44L79,180.19v2.93a.62.62,0,0,0,.6.6.56.56,0,0,0,.42-.18.54.54,0,0,0,.18-.42v-2.93l2.19-2.74a.64.64,0,0,0,.13-.44.59.59,0,0,0-.23-.4m9.66-.15-.2-.05-.19.07a.64.64,0,0,0-.29.25l-2.49,4.11-2.49-4.11a.55.55,0,0,0-.29-.25.62.62,0,0,0-.38,0,.6.6,0,0,0-.32.22.58.58,0,0,0-.12.36v6.08a.54.54,0,0,0,.18.42.58.58,0,0,0,.42.18.58.58,0,0,0,.43-.18.57.57,0,0,0,.17-.42v-3.94l1.89,3.12h0s0,0,0,0v0s0,0,0,0l0,0,0,0,0,0h0l0,0h0l0,0h0s0,0,0,0h0l.13,0h0a.53.53,0,0,0,.25,0H89l0,0h0l0,0h0l0,0,0,0,0,0,0,0v0l0,0h0l1.89-3.12v3.94a.54.54,0,0,0,.17.42.58.58,0,0,0,.43.18.58.58,0,0,0,.42-.18.54.54,0,0,0,.17-.42V177a.58.58,0,0,0-.12-.36.62.62,0,0,0-.31-.22"/></g></g></svg>