<?xml version="1.0" encoding="UTF-8"?>
<svg width="29px" height="22px" viewBox="0 0 29 22" version="1.1" xmlns="http://www.w3.org/2000/svg" xmlns:xlink="http://www.w3.org/1999/xlink">
    <title>Group 8</title>
    <defs>
        <polygon id="path-1" points="0 0.626399808 27.1957867 0.626399808 27.1957867 17 0 17"></polygon>
    </defs>
    <g id="Page-1" stroke="none" stroke-width="1" fill="none" fill-rule="evenodd">
        <g id="Progress-2-(weight)-" transform="translate(-173.000000, -767.000000)">
            <g id="Group-8" transform="translate(173.500000, 767.000000)">
                <g id="Group-3" transform="translate(0.000000, 5.000000)">
                    <mask id="mask-2" fill="white">
                        <use xlink:href="#path-1"></use>
                    </mask>
                    <g id="Clip-2"></g>
                    <path d="M12.21276,6.28382632 C11.35036,4.82361579 10.4926267,3.37145789 9.60129333,1.86293158 C8.70996,3.37145789 7.85316,4.82272105 6.98982667,6.28472105 C7.35756,6.71061579 7.71502667,7.12219474 8.08649333,7.55256316 C8.44396,7.1383 8.77902667,6.74819474 9.11689333,6.35987895 C9.50889333,5.90893158 9.69742667,5.90982632 10.0866267,6.35987895 C10.4254267,6.75177368 10.7642267,7.14545789 11.1170267,7.55345789 C11.50156,7.10787895 11.8524933,6.70166842 12.21276,6.28382632 L12.21276,6.28382632 Z M17.63916,4.74308947 C16.6600933,6.08072105 15.7174267,7.36735263 14.78036,8.65756316 C14.7374267,8.71751053 14.7122267,8.83382632 14.74396,8.89108947 C14.9604933,9.28208947 15.1938267,9.66324737 15.44116,10.0810895 C15.9068933,9.6033 16.3380933,9.1613 16.7702267,8.72019474 C17.1416933,8.33993158 17.31156,8.33993158 17.68676,8.71661579 C18.1030267,9.13535263 18.5192933,9.55319474 18.9486267,9.98535263 C19.4460933,9.47177368 19.9146267,8.98951053 20.38876,8.50187895 C19.47036,7.24656316 18.5706267,6.0163 17.63916,4.74308947 L17.63916,4.74308947 Z M15.88916,10.8111947 C15.91156,10.8639842 15.92556,10.9069316 15.9470267,10.9454053 C16.9382267,12.6248263 17.9266267,14.3060368 18.92996,15.9783 C18.9934267,16.0829842 19.1800933,16.1787211 19.31076,16.1796158 C21.43316,16.1912474 23.55556,16.1876684 25.67796,16.1867737 C25.76476,16.1867737 25.8506267,16.1715632 25.98876,16.1581421 C24.2742267,13.8148263 22.5904933,11.5126684 20.8852933,9.18187895 C20.3738267,9.70798421 19.8940933,10.1991947 19.4162267,10.6913 C19.03356,11.0849842 18.89636,11.0751421 18.4968933,10.7118789 C18.0582267,10.3128263 17.5906267,9.94151053 17.12116,9.54603684 C16.7664933,9.9093 16.32876,10.3602474 15.88916,10.8111947 L15.88916,10.8111947 Z M18.0302267,16.1688789 C16.2298267,13.1115632 14.45276,10.0936158 12.6560933,7.04435263 C12.29676,7.45951053 11.96636,7.83798421 11.6396933,8.21914211 C11.2028933,8.72735263 11.0274267,8.72556316 10.58316,8.20661579 C10.2648933,7.83619474 9.94476,7.46756316 9.60222667,7.0703 C9.21396,7.51945789 8.85836,7.93461579 8.49902667,8.3453 C8.21249333,8.67187895 7.97542667,8.67724737 7.69076,8.36498421 C7.59742667,8.26387895 7.51156,8.15651053 7.42196,8.05361579 C7.13542667,7.72345789 6.84702667,7.39508947 6.54089333,7.04435263 C4.73209333,10.1061421 2.95222667,13.1240895 1.15462667,16.1688789 L18.0302267,16.1688789 Z M14.20916,8.02140526 C15.07996,6.83319474 15.92836,5.67451053 16.7776933,4.51582632 C16.9120933,4.33151053 17.04556,4.1463 17.1808933,3.96287895 C17.5084933,3.51819474 17.7716933,3.51551053 18.0936933,3.95572105 C19.5216933,5.90803684 20.94876,7.86124737 22.37676,9.81356316 L27.0238267,16.1679842 C27.04436,16.1957211 27.07516,16.2207737 27.0826267,16.2520895 C27.1246267,16.4274579 27.2422267,16.6430895 27.17596,16.7692474 C27.11156,16.8927211 26.8586267,16.9884579 26.6878267,16.9893526 C24.9032933,17.0045632 23.1196933,16.9991947 21.33516,16.9991947 L0.666493333,16.9991947 C0.596493333,16.9991947 0.52556,17.0018789 0.45556,16.9974053 C0.0644933333,16.9759316 -0.110973333,16.7039316 0.0728933333,16.3684053 C0.30156,15.9505632 0.55356,15.5443526 0.796226667,15.1336684 C3.56822667,10.4380895 6.34022667,5.74251053 9.11222667,1.04603684 C9.12902667,1.01651053 9.14676,0.987878947 9.16542667,0.958352632 C9.43609333,0.518142105 9.77209333,0.514563158 10.0334267,0.954773684 C10.9714267,2.53756316 11.9056933,4.12393158 12.8418267,5.70761579 C13.2916933,6.46993158 13.7424933,7.23224737 14.20916,8.02140526 L14.20916,8.02140526 Z" id="Fill-1" fill="#FFFFFF" mask="url(#mask-2)"></path>
                </g>
                <path d="M13.9992972,1.55234095 C13.9992972,1.86244459 14.0021085,2.17173216 13.9964859,2.48101973 C13.9955488,2.53651196 13.9571278,2.59200419 13.9355746,2.64749642 C13.8765374,2.62301456 13.8034438,2.61240575 13.7603374,2.57405083 C13.4023662,2.25170626 12.9881691,2.20519071 12.5336769,2.38390833 C12.3275155,2.46469849 12.1335364,2.56997051 11.9320604,2.66055342 C11.7315216,2.75195238 11.5337941,2.8531441 11.3238843,2.92495757 C10.8253485,3.09469851 10.3755418,2.97310524 10.0681738,2.59445238 C10.0269415,2.54467259 10.0035141,2.47041093 10.0035141,2.40757414 C9.99882863,1.78247049 9.99882863,1.15736685 10.0035141,0.532263203 C10.0044512,0.472690663 10.0513061,0.413118122 10.0756706,0.354361644 C10.1347077,0.381291696 10.2059271,0.39761294 10.2509078,0.436783926 C10.5976338,0.740359064 10.9987115,0.807276164 11.4391472,0.626110356 C11.7586974,0.494724342 12.0613799,0.332327964 12.3781188,0.192781328 C12.6629964,0.0671077495 12.9553707,-0.0471409583 13.2927258,0.019776142 C13.5794776,0.0769004959 13.785639,0.232768376 13.9524423,0.43107149 C13.9889891,0.475954911 13.9964859,0.546952323 13.997423,0.605708801 C14.0011714,0.921524872 13.9992972,1.23652488 13.9992972,1.55234095" id="Fill-4" fill="#FFFFFF"></path>
                <path d="M9.33043091,3.48099896 L9.33043091,0.324914574 C9.33043091,0.259801183 9.31143091,0.183197193 9.34043091,0.13244705 C9.37443091,0.0730789574 9.44843091,0.00892311578 9.51243091,0.000305166906 C9.55643091,-0.00544013234 9.63143091,0.0711638576 9.65943091,0.12670175 C9.68543091,0.181282093 9.67243091,0.255013434 9.67243091,0.320126825 C9.67343091,2.4391847 9.67243091,4.55728502 9.67243091,6.67634289 L9.67243091,6.74145629 C9.67243091,6.86210757 9.66643091,6.99807965 9.50343091,7 C9.34143091,7.0009523 9.32943091,6.87072552 9.33043091,6.74624403 C9.33143091,6.2387426 9.33043091,5.73124117 9.33043091,5.22278218 L9.33043091,3.48099896 Z" id="Fill-6" fill="#FFFFFF"></path>
            </g>
        </g>
    </g>
</svg>