<?xml version="1.0" encoding="UTF-8"?>
<svg width="21px" height="17px" viewBox="0 0 21 17" version="1.1" xmlns="http://www.w3.org/2000/svg" xmlns:xlink="http://www.w3.org/1999/xlink">
    <title>Group 3</title>
    <defs>
        <polygon id="path-1" points="0 0.0002 20.091 0.0002 20.091 16.1510333 0 16.1510333"></polygon>
    </defs>
    <g id="Page-1" stroke="none" stroke-width="1" fill="none" fill-rule="evenodd">
        <g id="Sign-Up-2-" transform="translate(-177.000000, -741.000000)">
            <g id="Group-3" transform="translate(177.000000, 741.000000)">
                <mask id="mask-2" fill="white">
                    <use xlink:href="#path-1"></use>
                </mask>
                <g id="Clip-2"></g>
                <path d="M6.6358,10.1413 C6.9198,9.8293 7.1938,9.5263 7.4718,9.2253 C9.4258,7.1143 11.4428,5.0653 13.6148,3.1763 C14.6678,2.2613 15.7518,1.3873 16.9408,0.6503 C17.1778,0.5023 17.4218,0.3633 17.6678,0.2293 C18.3848,-0.1617 19.1958,-0.0447 19.7018,0.5143 C20.1378,0.9953 20.2968,1.9143 19.7048,2.5293 C19.4648,2.7783 19.1978,3.0043 18.9208,3.2123 C17.5748,4.2233 16.3438,5.3623 15.1898,6.5823 C13.2788,8.6043 11.5788,10.7943 10.0208,13.0953 C9.5988,13.7193 9.2068,14.3623 8.7848,14.9863 C8.6148,15.2383 8.4288,15.4893 8.2068,15.6933 C7.4968,16.3443 6.4838,16.2973 5.8018,15.5753 C5.5238,15.2823 5.3018,14.9373 5.0578,14.6133 C4.0968,13.3323 3.0398,12.1343 1.9378,10.9753 C1.4998,10.5143 1.0368,10.0773 0.5998,9.6153 C0.2508,9.2443 -0.0022,8.8103 -0.000211774313,8.2843 C0.0038,7.5953 0.3118,7.0543 0.9068,6.7073 C1.4988,6.3633 2.1068,6.3643 2.7108,6.7033 C3.1648,6.9593 3.5228,7.3313 3.9038,7.6763 C4.7918,8.4783 5.6788,9.2823 6.5668,10.0843 C6.5848,10.1013 6.6048,10.1163 6.6358,10.1413" id="Fill-1" fill="#43444C" mask="url(#mask-2)"></path>
            </g>
        </g>
    </g>
</svg>