<svg xmlns="http://www.w3.org/2000/svg" viewBox="0 0 146.1 65.67"><title>exercisebandsAsset 11</title><g id="Layer_2" data-name="Layer 2"><g id="Layer_1-2" data-name="Layer 1"><path d="M.11,41.89A21,21,0,0,1,21,18.34c9.59-.19,19.05,1.09,28.49,2.52C60.62,22.55,71.71,24.51,82.86,26c10.81,1.42,21.69,2.38,32.55,3.47,2.56.25,5.16.22,7.81.32V43c-2.73,0-5.42.17-8.07,0-7.28-.55-14.56-1.11-21.8-2C85.54,40,77.75,38.82,70,37.61c-11.16-1.73-22.28-3.75-33.46-5.34a60.76,60.76,0,0,0-20.62.1A24.7,24.7,0,0,0,.75,41.46a5.36,5.36,0,0,1-.4.43S.27,41.89.11,41.89ZM1,22.8c4.43-5.32,10-8.79,17-9.17a97.6,97.6,0,0,1,17,.42c12.33,1.5,24.59,3.51,36.89,5.3,7.11,1,14.21,2.19,21.35,3,6.9.83,13.84,1.38,20.76,2,3.05.25,6.12.3,9.24.44V11.55c-3.13-.17-6.21-.21-9.26-.53C102,9.77,90,8.64,78.08,7.07c-15-2-29.9-4.47-44.88-6.45A62.93,62.93,0,0,0,18.69.27C6.88,1.46-1,11.6.14,23.86ZM.5,54.2l1.07-.47a43.68,43.68,0,0,1,14.15-3.62,110.37,110.37,0,0,1,25.49,1c11.68,1.6,23.32,3.45,35,5.29a407.24,407.24,0,0,0,44.48,4.85c.85,0,1.71,0,2.57,0V48c-2.52-.1-5-.08-7.4-.33-10.75-1.09-21.53-2-32.24-3.48C70,42.36,56.43,40,42.85,38c-8.15-1.22-16.34-2-24.58-1a22.86,22.86,0,0,0-10.7,3.72C2.87,43.93.87,48.71.06,54.21.31,54.21.42,54.24.5,54.2Zm129.39,7.35c3.92-.08,7.84-.32,11.76-.21,2.55.08,4.46-1.65,4.45-4.6-.07-13.57,0-27.15,0-40.73,0-3.06-1.47-4.5-4.52-4.46l-11.76.15c-.47,0-.94.05-1.47.09V61.55C128.93,61.55,129.41,61.56,129.89,61.55Zm-48.12.71c-4-.64-8.09-1.26-12.13-1.92-13.41-2.18-26.77-4.76-40.38-5.63a64,64,0,0,0-18.26,1,28.69,28.69,0,0,0-9.13,3.51c.65.38,1.09.66,1.55.91A40.14,40.14,0,0,0,16.9,64.47c11.51,1.8,23.06,1.25,34.6.47,6.89-.47,13.77-1.06,20.65-1.62,3.21-.25,6.41-.54,9.62-.82Z"/></g></g></svg>