<?xml version="1.0" encoding="UTF-8"?>
<svg width="26px" height="18px" viewBox="0 0 26 18" version="1.1" xmlns="http://www.w3.org/2000/svg" xmlns:xlink="http://www.w3.org/1999/xlink">
    <title>Group 6</title>
    <defs>
        <polygon id="path-1" points="0 0.577 25.6614366 0.577 25.6614366 17 0 17"></polygon>
    </defs>
    <g id="Page-1" stroke="none" stroke-width="1" fill="none" fill-rule="evenodd">
        <g id="Sign-Up" transform="translate(-314.000000, -312.000000)">
            <g id="Group-6" transform="translate(314.000000, 312.000000)">
                <g id="Group-3" transform="translate(0.000000, 0.423300)">
                    <mask id="mask-2" fill="white">
                        <use xlink:href="#path-1"></use>
                    </mask>
                    <g id="Clip-2"></g>
                    <path d="M23.6323,8.7864 C23.5883,8.7304 23.5593,8.6914 23.5283,8.6544 C22.6763,7.6464 21.7523,6.7104 20.7463,5.8564 C19.3673,4.6844 17.8813,3.6834 16.1843,3.0254 C14.7003,2.4494 13.1733,2.2094 11.5863,2.4554 C10.1633,2.6754 8.8553,3.2064 7.6163,3.9254 C5.8703,4.9404 4.3583,6.2424 2.9813,7.7094 C2.6583,8.0524 2.3523,8.4094 2.0363,8.7634 C2.0843,8.8234 2.1143,8.8684 2.1523,8.9074 C2.7363,9.5304 3.3013,10.1764 3.9133,10.7724 C5.2793,12.1034 6.7853,13.2514 8.5063,14.0964 C9.7993,14.7304 11.1553,15.1434 12.6063,15.1854 C13.9793,15.2254 15.2853,14.9234 16.5383,14.3804 C19.3903,13.1444 21.6183,11.1154 23.6323,8.7864 M12.8323,17.0004 C10.9653,16.9644 9.2263,16.4624 7.5703,15.6334 C5.5523,14.6224 3.8003,13.2494 2.2343,11.6394 C1.5393,10.9244 0.9023,10.1534 0.2583,9.3904 C-0.0897,8.9784 -0.0807,8.5834 0.2493,8.1634 C2.2413,5.6304 4.5683,3.4814 7.4453,1.9804 C8.7593,1.2964 10.1473,0.8304 11.6223,0.6504 C13.1673,0.4624 14.6763,0.6414 16.1523,1.1174 C17.8143,1.6534 19.3133,2.4974 20.7093,3.5334 C22.4923,4.8544 24.0543,6.4024 25.4133,8.1554 C25.7413,8.5804 25.7453,8.9684 25.4183,9.3864 C23.5603,11.7584 21.3913,13.7834 18.7583,15.2804 C17.3843,16.0614 15.9263,16.6244 14.3543,16.8514 C13.8503,16.9254 13.3403,16.9524 12.8323,17.0004" id="Fill-1" fill="#43444C" mask="url(#mask-2)"></path>
                </g>
                <path d="M16.1518182,9.2126 C16.1578,7.3786 14.6758,5.8806 12.8528,5.87358187 C11.0138,5.8676 9.5208,7.3516 9.51578193,9.1916 C9.5098,11.0216 10.9988,12.5186 12.8238,12.5226045 C14.6538,12.5256 16.1468,11.0416 16.1518182,9.2126 M7.73278818,9.1926 C7.7378,6.3636 10.0308,4.0846 12.8638,4.09357344 C15.6698,4.1026 17.9408,6.3996 17.9328211,9.2186 C17.9258,12.0366 15.6298,14.3136 12.8048,14.3026397 C10.0058,14.2916 7.7268,11.9956 7.73278818,9.1926" id="Fill-4" fill="#43444C"></path>
            </g>
        </g>
    </g>
</svg>