<?xml version="1.0" encoding="UTF-8"?>
<svg width="16px" height="23px" viewBox="0 0 16 23" version="1.1" xmlns="http://www.w3.org/2000/svg" xmlns:xlink="http://www.w3.org/1999/xlink">
    <title>Group 3</title>
    <defs>
        <polygon id="path-1" points="0 0.0005 15.014 0.0005 15.014 22.5665 0 22.5665"></polygon>
    </defs>
    <g id="Page-1" stroke="none" stroke-width="1" fill="none" fill-rule="evenodd">
        <g id="iPhone-11-Pro-Copy" transform="translate(-53.000000, -521.000000)">
            <g id="Group-3" transform="translate(53.000000, 521.000000)">
                <mask id="mask-2" fill="white">
                    <use xlink:href="#path-1"></use>
                </mask>
                <g id="Clip-2"></g>
                <path d="M7.511,13.1514003 C10.613,13.1524 13.138,10.6364 13.1420027,7.5454 C13.145,4.4024 10.634,1.8774 7.508,1.87939881 C4.396,1.8804 1.88,4.3954 1.87699881,7.5054 C1.875,10.6304 4.391,13.1514003 7.511,13.1514003 M8.462,17.3404 C8.838,17.3404 9.204,17.3394 9.57,17.3414 C9.798,17.3424 10.029,17.3324 10.255,17.3584 C10.75,17.4174 11.104,17.8414 11.079,18.3204 C11.053,18.8124 10.68,19.1984 10.181,19.2144 C9.689,19.2314 9.196,19.2194 8.703,19.2194 L8.448,19.2194 L8.448,19.4834 C8.448,20.1914 8.452,20.8994 8.447,21.6074 C8.443,22.0684 8.168,22.4254 7.753,22.5344 C7.338,22.6424 6.897,22.4744 6.704,22.0954 C6.62,21.9294 6.579,21.7254 6.575,21.5384 C6.56,20.8584 6.57,20.1774 6.57,19.4984 L6.57,19.2194 L6.33,19.2194 C5.865,19.2194 5.4,19.2224 4.935,19.2194 C4.363,19.2154 3.944,18.8244 3.938,18.2934 C3.931,17.7574 4.356,17.3484 4.935,17.3424 C5.469,17.3374 6.002,17.3414 6.552,17.3414 L6.552,14.9904 C6.153,14.8974 5.751,14.8244 5.361,14.7104 C2.482,13.8664 0.386,11.3634 0.049,8.3784 C-0.418,4.2344 2.493,0.5584 6.641,0.0534 C10.742,-0.4456 14.548,2.5744 14.971,6.6634 C15.394,10.7464 12.697,14.2724 8.636,14.9384 C8.483,14.9634 8.444,15.0124 8.446,15.1594 C8.452,15.8324 8.448,16.5054 8.449,17.1784 C8.449,17.2254 8.456,17.2724 8.462,17.3404" id="Fill-1" fill="#FCDE43" mask="url(#mask-2)"></path>
            </g>
        </g>
    </g>
</svg>