<?xml version="1.0" encoding="UTF-8"?>
<svg width="21px" height="21px" viewBox="0 0 21 21" version="1.1" xmlns="http://www.w3.org/2000/svg" xmlns:xlink="http://www.w3.org/1999/xlink">
    <title>Group 9</title>
    <defs>
        <polygon id="path-1" points="0.403248092 0.770424808 15.9813203 0.770424808 15.9813203 16 0.403248092 16"></polygon>
        <polygon id="path-3" points="0 0.883 20.34 0.883 20.34 12.7735252 0 12.7735252"></polygon>
    </defs>
    <g id="Page-1" stroke="none" stroke-width="1" fill="none" fill-rule="evenodd">
        <g id="colores" transform="translate(-49.000000, -767.000000)">
            <g id="Group-9" transform="translate(49.000000, 767.000000)">
                <g id="Group-3" transform="translate(2.000000, 4.117100)">
                    <mask id="mask-2" fill="white">
                        <use xlink:href="#path-1"></use>
                    </mask>
                    <g id="Clip-2"></g>
                    <path d="M0.4053,12.2583 C0.4053,11.2823 0.4103,10.3073 0.403248092,9.3313 C0.4003,8.9453 0.5273,8.6303 0.7943,8.3523 C3.1573,5.8883 5.5173,3.4203 7.8783,0.9533 C8.1123,0.7093 8.2703,0.7093 8.5043,0.9543 C10.8453,3.4003 13.1833,5.8473 15.5293,8.2873 C15.8373,8.6083 15.9833,8.9583 15.9813203,9.4043 C15.9693,11.3443 15.9763,13.2833 15.9763,15.2233 C15.9763,15.7373 15.7123,15.9993 15.1933,15.9993 C13.9083,16.0003 12.6233,16.0003 11.3383,15.9993 C10.7863,15.9993 10.5053,15.7183 10.5053,15.1653 C10.5043,13.6183 10.5053,12.0713 10.5053,10.5253 C10.5053,9.9873 10.2453,9.7273 9.7063,9.7273 L6.7433,9.7273 C6.2563,9.7273 5.9843,10.0003 5.9843,10.4903 C5.9833,12.0493 5.9843,13.6093 5.9833,15.1673 C5.9833,15.7193 5.7013,15.9993 5.1473,15.9993 C3.8273,16.0003 2.5063,16.0003 1.1853,15.9993 C0.6693,15.9993 0.4053,15.7363 0.4053,15.2213 L0.4053,12.2583 Z" id="Fill-1" fill="#FFFFFF" mask="url(#mask-2)"></path>
                </g>
                <g id="Group-6" transform="translate(0.000000, 0.117100)">
                    <mask id="mask-4" fill="white">
                        <use xlink:href="#path-3"></use>
                    </mask>
                    <g id="Clip-5"></g>
                    <path d="M0,11.4839 C0.083,11.3389 0.136,11.1829 0.24,11.0739 C2,9.2259 3.767,7.3839 5.531,5.5419 C6.946,4.0639 8.361,2.5859 9.776,1.1069 C10.063,0.8069 10.32,0.8069 10.611,1.1109 C13.787,4.4279 16.962,7.7459 20.137,11.0629 C20.406,11.3429 20.408,11.6299 20.143,11.9129 C19.939,12.1289 19.733,12.3429 19.527,12.5569 C19.248,12.8459 18.994,12.8459 18.716,12.5559 C17.005,10.7689 15.294,8.9809 13.583,7.1929 C12.6,6.1669 11.618,5.1389 10.634,4.1129 C10.341,3.8069 10.039,3.8079 9.743,4.1179 C7.069,6.9109 4.396,9.7049 1.72,12.4959 C1.628,12.5919 1.52,12.6899 1.4,12.7399 C1.222,12.8149 1.048,12.7559 0.912,12.6159 C0.672,12.3679 0.427,12.1249 0.2,11.8649 C0.115,11.7679 0.076,11.6319 0,11.4839" id="Fill-4" fill="#FFFFFF" mask="url(#mask-4)"></path>
                </g>
                <path d="M16.4946,3.9574 C16.4946,4.6054 16.4986,5.2544 16.4906,5.9024 C16.4896,5.9844 16.4286,6.0664 16.3946,6.1484 C16.3146,6.1134 16.2146,6.0974 16.1576,6.0384 C15.5726,5.4374 14.9956,4.8284 14.4136,4.2254 C14.2386,4.0434 14.1546,3.8354 14.1566,3.5824 C14.1616,3.0594 14.1566,2.5354 14.1586,2.0124 C14.1596,1.6534 14.3526,1.4604 14.7106,1.4594 C15.1206,1.4574 15.5316,1.4574 15.9416,1.4594 C16.2996,1.4604 16.4916,1.6484 16.4936,2.0124 C16.4976,2.6604 16.4946,3.3094 16.4946,3.9574" id="Fill-7" fill="#FFFFFF"></path>
            </g>
        </g>
    </g>
</svg>