<?xml version="1.0" encoding="UTF-8"?>
<svg width="24px" height="43px" viewBox="0 0 24 43" version="1.1" xmlns="http://www.w3.org/2000/svg" xmlns:xlink="http://www.w3.org/1999/xlink">
    <title>Group 3</title>
    <defs>
        <polygon id="path-1" points="0 0 24 0 24 43 0 43"></polygon>
    </defs>
    <g id="Page-1" stroke="none" stroke-width="1" fill="none" fill-rule="evenodd">
        <g id="exercise-workout-especifico" transform="translate(-178.000000, -531.000000)">
            <g id="Group-3" transform="translate(178.000000, 531.000000)">
                <mask id="mask-2" fill="white">
                    <use xlink:href="#path-1"></use>
                </mask>
                <g id="Clip-2"></g>
                <path d="M3.15441943,20.1421481 L6.94633751,20.1421481 C6.94633751,19.9594698 6.94716436,19.7894775 6.94551067,19.6203309 C6.93889589,18.8794689 6.40309936,18.3187481 5.67878182,18.3060621 C5.24716794,18.2984505 4.81555406,18.2984505 4.38476703,18.3128279 C3.9060229,18.3272054 3.54799836,18.5648563 3.30573234,18.9860313 C3.09819386,19.3480049 3.16020735,19.7446536 3.15441943,20.1421481 L3.15441943,20.1421481 Z M17.0214622,22.9009286 L20.8489347,22.9009286 C20.8489347,22.6962613 20.8572032,22.5042799 20.847281,22.3131443 C20.8133803,21.6306379 20.249471,21.0174816 19.5036554,21.0589225 C19.1464577,21.0783743 18.7851258,21.0834487 18.4295818,21.0555396 C17.868153,21.0115614 17.2562866,21.4039815 17.1165496,21.9875372 C17.0470945,22.2759321 17.0520555,22.5846245 17.0214622,22.9009286 L17.0214622,22.9009286 Z M10.2140349,12.9297383 C9.94034872,12.6794014 9.68650684,12.4747341 9.46243143,12.2387746 C8.83650863,11.5816402 8.27921408,10.8695331 7.88728884,10.0356405 C7.28699827,8.75773819 7.08276719,7.43162908 7.39614201,6.03532415 C7.69959468,4.68553452 8.39910683,3.56832143 9.32600176,2.58388839 C9.45912405,2.442651 9.59720742,2.30817948 9.75926933,2.14491808 C9.70056323,2.14749024 9.67741153,2.14072438 9.66418198,2.15002744 C9.47566098,2.2701215 9.27804466,2.38006677 9.10192636,2.51792123 C8.63889231,2.87989489 8.20727844,3.27569786 7.84594651,3.74761679 C7.01661946,4.8318463 6.53952903,6.04885587 6.53043372,7.43585775 C6.52381895,8.49048661 6.78675614,9.48506844 7.20514047,10.4407466 C7.51768845,11.1520079 7.92284324,11.7973021 8.52809488,12.2903643 C9.00931955,12.6819386 9.55669194,12.899292 10.2140349,12.9297383 L10.2140349,12.9297383 Z M12.0802275,1.94789729 C13.0691359,2.90019248 13.8075098,3.99457078 14.3284231,5.24287247 C14.8799298,6.56559865 15.1825556,7.93737733 15.0825071,9.3835805 C15.002303,10.543926 14.6484127,11.5977091 13.8968093,12.490803 C13.7454963,12.6709441 13.5784734,12.8375535 13.4073161,13.0236147 C13.4627148,13.0329177 13.5073646,13.0439123 13.5511874,13.0456037 C14.0009919,13.0667471 14.4177226,12.9576475 14.7906303,12.6971618 C15.4843546,12.2142483 15.912661,11.5249761 16.2004036,10.7392903 C16.6973384,9.38273477 16.7039531,7.98981276 16.4344012,6.59097063 C16.1995768,5.37311533 15.762175,4.23645038 15.0072641,3.24609721 C14.442528,2.50523524 13.7620333,1.92337104 12.8657317,1.64681639 C12.815294,1.63074747 12.7499731,1.62313587 12.7044966,1.64343346 C12.5010924,1.73477261 12.3018223,1.83879775 12.0802275,1.94789729 L12.0802275,1.94789729 Z M10.8267282,2.89680955 C10.0718173,3.53787504 9.35742193,4.61111003 9.02254909,5.61414919 C8.74555551,6.44212165 8.70173265,7.27347704 8.97541884,8.11498123 C9.22595333,8.88628958 9.58397787,9.60093384 10.0114575,10.284286 C10.5307171,11.1131042 11.1690426,11.8235198 11.9462783,12.4045382 C12.0330972,12.4688139 12.0893228,12.4688139 12.1736611,12.4003096 C12.6424831,12.0197298 12.9360136,11.5249761 13.1113051,10.9473405 C13.4007014,9.99166242 13.391606,9.01906964 13.2617911,8.04140247 C13.1013829,6.83877036 12.7144187,5.7122542 12.1298383,4.65508814 C11.7726406,4.00979397 11.3567368,3.40847792 10.8267282,2.89680955 L10.8267282,2.89680955 Z M18.9265166,28.3432195 L18.9265166,28.3406823 C19.748402,28.3406823 20.5702874,28.3499854 21.3921728,28.3364537 C21.7783102,28.3313793 22.1379884,28.208748 22.4464021,27.9584111 C22.6216936,27.8154822 22.7159541,27.6395698 22.7126467,27.3959987 C22.7027246,26.6889661 22.6903219,25.9802419 22.716781,25.2732093 C22.7316642,24.8545715 22.5340479,24.6152291 22.2041361,24.447774 C22.070187,24.3801154 21.9271425,24.3090738 21.7816176,24.2930049 C21.4219393,24.2532555 21.0581269,24.2287292 20.6959681,24.2270377 C19.2969438,24.2211176 17.8979195,24.2245005 16.4988952,24.2304207 C16.1640224,24.2321121 15.8539549,24.3378287 15.5703466,24.5179698 C15.3082362,24.6845792 15.1709797,24.9103899 15.1784213,25.2427629 C15.1933046,25.9497956 15.1916509,26.657674 15.1817287,27.3647066 C15.1775945,27.6454899 15.2900456,27.8433914 15.5025452,27.9981605 C15.8456865,28.2476517 16.2334775,28.3423738 16.6485544,28.3432195 L18.9265166,28.3432195 Z M5.12975573,21.4792517 L5.12975573,21.4606456 C4.35996164,21.4606456 3.59016754,21.4589541 2.82120028,21.4606456 C2.39289379,21.4623371 1.98277793,21.5392987 1.62227285,21.7964015 C1.40150483,21.9545536 1.27582416,22.1566837 1.28078524,22.4509988 C1.29401478,23.1690259 1.29484163,23.8878989 1.28574632,24.6059261 C1.28161209,24.8850179 1.38992898,25.0854566 1.60160169,25.2419172 C1.93895506,25.4930998 2.32839977,25.5861304 2.73355455,25.5878219 C4.28389176,25.597125 5.83340211,25.6005079 7.38373931,25.5912048 C7.81618004,25.5895134 8.22712275,25.4770309 8.57026405,25.1818701 C8.73397966,25.0406327 8.81418377,24.8697947 8.81170323,24.6397554 C8.80426161,23.8955105 8.81087639,23.1512656 8.81584657,22.4061749 C8.81666431,22.2091192 8.7612656,22.045047 8.61574061,21.9114212 C8.31559533,21.6357123 7.9542634,21.4953206 7.56399185,21.4851718 C6.75285543,21.4648743 5.94089216,21.4792517 5.12975573,21.4792517 L5.12975573,21.4792517 Z M3.15441943,26.9080109 L3.15441943,28.6815127 C3.15441943,31.5113348 3.15276573,34.3420026 3.15276573,37.1726705 C3.15276573,37.9169154 3.70179182,38.487785 4.4285899,38.4987796 C4.83870576,38.5046997 5.24964848,38.5063912 5.66059119,38.5013168 C6.39069666,38.4937052 6.94137643,37.9304471 6.94468382,37.1845107 C6.95047174,36.0038677 6.95047174,34.8223789 6.9496449,33.6417358 C6.94881805,31.5240208 6.94468382,29.4071514 6.94137643,27.2902821 L6.94137643,26.9080109 L3.15441943,26.9080109 Z M17.0487481,29.6600256 L17.0487481,29.8435496 C17.0504018,31.7210765 17.0520555,33.5986034 17.0520555,35.4769761 C17.0520555,36.9671574 17.0487481,38.4556472 17.049575,39.9458285 C17.0504018,40.6114202 17.5663541,41.2127363 18.1873158,41.2448741 C18.6486961,41.2685547 19.1133839,41.2727833 19.5739374,41.2499485 C20.3660563,41.2110448 20.8505884,40.6697758 20.8505884,39.8612552 C20.8505884,38.994379 20.8497615,38.1275029 20.8497615,37.259781 C20.8497615,34.7860124 20.8497615,32.3130895 20.8505884,29.8393209 L20.8505884,29.6600256 L17.0487481,29.6600256 Z M15.023801,1.26031648 C15.3809987,1.55378578 15.7770582,1.83710628 16.1243337,2.17539942 C17.0553629,3.08117931 17.6746709,4.18486067 18.0500593,5.44161969 C18.3650878,6.49878575 18.4709241,7.57709513 18.3882395,8.67231917 C18.3063817,9.76754321 18.0575009,10.8162519 17.4497687,11.7431752 C16.6047316,13.0329177 15.4562418,13.8651189 13.9431127,14.1230674 C13.3023066,14.2313212 12.6689422,14.1645083 12.0454999,13.9801385 C11.9727374,13.9581495 11.8801306,13.9573038 11.808195,13.98183 C10.1850953,14.5603113 8.69429103,14.276145 7.32751375,13.2519626 C5.69283821,12.0248042 4.90650718,10.3451788 4.89823871,8.28835646 C4.88997025,5.93721914 5.74906377,3.94382681 7.34570437,2.26843004 C7.3622413,2.25151538 7.37547085,2.23121779 7.41598633,2.18047382 C6.92566635,2.40882169 6.54283642,2.71666845 6.19804142,3.08287077 C5.6109804,3.70702161 5.26370487,4.46479825 4.99332606,5.27162739 C4.65349215,6.28058668 4.44016575,7.31660942 4.30621661,8.37377548 C4.15076947,9.59839664 4.14332785,10.825555 4.25329844,12.0527134 C4.38559388,13.5369745 4.71385194,14.9764118 5.30752773,16.346499 C5.37615599,16.5029596 5.44974533,16.5638524 5.62586364,16.5630067 C6.60071567,16.5562408 7.40689102,16.9435864 8.01379635,17.7241979 C8.43631492,18.2680041 8.65790978,18.8955379 8.6529487,19.5983419 C8.65129501,19.8334556 8.65708294,20.0677236 8.65129501,20.3011459 C8.64881447,20.3840277 8.6777541,20.4229314 8.7488629,20.4550692 C9.22760703,20.6707311 9.62780074,20.9878809 9.87089361,21.4682572 C9.97507627,21.6754617 10.0676831,21.9164956 10.0742979,22.143152 C10.0991032,23.0523148 10.1115059,23.9648606 10.0825663,24.8731776 C10.0618952,25.5269291 9.68816053,25.9996938 9.17799624,26.3608217 C9.04983503,26.4504694 8.91092481,26.5274311 8.77036091,26.5933983 C8.68106148,26.6348392 8.65046816,26.6830459 8.65129501,26.7836881 C8.65542924,27.5761398 8.65377555,28.3694372 8.65377555,29.1627347 C8.65212186,31.0140439 8.65046816,32.8661988 8.64964132,34.717508 C8.64964132,35.5429433 8.65212186,36.3683785 8.6529487,37.1921223 C8.6529487,38.883588 7.30932313,40.2562124 5.65480327,40.251138 C5.14546582,40.2494466 4.63447468,40.2604411 4.12679092,40.2223831 C2.89644332,40.1318897 1.82650394,39.1736744 1.53297343,37.9439788 C1.42217599,37.4771343 1.44450085,37.0043696 1.443674,36.531605 C1.44119346,34.9610791 1.44119346,33.3922446 1.443674,31.8225645 C1.443674,31.1730416 1.45524985,30.5243645 1.45524985,29.8756874 C1.45524985,28.8438934 1.44863508,27.812945 1.44863508,26.7819967 C1.44863508,26.6745886 1.4081196,26.6272276 1.31551279,26.5824037 C0.739200778,26.3050034 0.286915738,25.8998973 0.0868188833,25.2596776 C0.0339007068,25.090531 0.00826846508,24.9053155 0.00578792555,24.7268659 C-0.00165369302,23.9394886 -0.00248053952,23.1521113 0.00661477206,22.3638883 C0.0140563906,21.7583436 0.231517022,21.244138 0.711914843,20.8720155 C0.909531159,20.7197836 1.1253381,20.5903865 1.33949134,20.4635266 C1.41804176,20.4161655 1.44450085,20.3688045 1.44615454,20.2774653 C1.45194247,19.889274 1.41969545,19.4926252 1.48832371,19.1154284 C1.70909173,17.9001103 2.41191126,17.0898982 3.56040106,16.6907123 C3.5752843,16.6856379 3.58851384,16.6788721 3.60587762,16.6712605 C3.48185064,16.3050581 3.3495552,15.9430845 3.23793092,15.5751907 C2.84683253,14.2913682 2.60870073,12.9796366 2.52518923,11.6366128 C2.46317575,10.642031 2.45573413,9.64829488 2.55991679,8.65625025 C2.73107402,7.02229438 3.07504216,5.43569956 3.8721222,3.98780492 C4.45918322,2.9213358 5.26949279,2.06460842 6.29478246,1.42354292 C6.96122075,1.00744236 7.67230875,0.713973061 8.45037131,0.644622967 C8.85056502,0.609102187 9.25820035,0.658154693 9.66252829,0.668303487 C9.71792701,0.66914922 9.77663311,0.674223617 9.82789759,0.659000425 C10.310776,0.505077047 10.7994422,0.375679921 11.3054723,0.358765264 C11.6883022,0.347770737 12.0727859,0.380754318 12.4564426,0.390903112 C12.5316857,0.391748845 12.6127166,0.392594578 12.6838254,0.369759791 C14.7071188,-0.289066099 16.6361517,-0.0683298251 18.4585214,1.03873447 C19.5119239,1.67895424 20.4032644,2.51115537 21.068049,3.57424156 C21.6890107,4.56713192 22.0743212,5.65389863 22.2628422,6.81762704 C22.4306921,7.85618697 22.4827834,8.89897558 22.4199431,9.94937578 C22.350488,11.1291731 22.1933871,12.2971302 21.9626969,13.4549384 C21.6220362,15.1573987 21.1689243,16.8302582 20.6943144,18.4980434 C20.6058418,18.8075816 20.513235,19.1154284 20.4313772,19.3945202 C20.7389641,19.5687412 21.0531658,19.7049042 21.3227177,19.9061886 C22.1586596,20.5278023 22.5489311,21.3921412 22.5580264,22.4433872 C22.560507,22.6446716 22.5638143,22.8468017 22.5563727,23.0489319 C22.5530653,23.1385796 22.5844855,23.1741003 22.6622091,23.2121583 C23.2294258,23.488713 23.7032088,23.8743671 23.8966909,24.5103582 C23.9752413,24.7683068 23.9835098,25.0541645 23.9892977,25.3273362 C24.0017004,25.9810877 23.9760682,26.6373764 23.998393,27.2902821 C24.0314669,28.2603377 23.5518959,28.8853343 22.7548159,29.3031263 C22.603503,29.3834709 22.5530653,29.4621241 22.5538922,29.6354993 C22.5621607,31.0081237 22.5588533,32.3807481 22.5588533,33.7542183 C22.5588533,34.8968034 22.560507,36.0410799 22.5580264,37.1845107 C22.5563727,38.1850127 22.5729097,39.1863604 22.5406626,40.1851709 C22.4984935,41.4926739 21.4351689,42.7384384 20.1725742,42.9270368 C19.5648421,43.0183759 18.9397461,42.9980783 18.3220918,42.9980783 C18.0508861,42.9989241 17.771412,42.954946 17.5101285,42.8796757 C16.2119795,42.5050161 15.3380027,41.3049212 15.3396564,39.9272224 C15.342137,38.0860619 15.3462712,36.2440558 15.3462712,34.4028954 C15.3462712,32.796003 15.3413101,31.1899563 15.342137,29.5822181 C15.342137,29.4578954 15.3140242,29.3910825 15.1924777,29.3301898 C14.5748234,29.0214973 14.0902913,28.5774875 13.9455932,27.8552317 C13.8968093,27.6082777 13.9100388,27.347792 13.9075583,27.0932264 C13.9017703,26.4919103 13.9207878,25.8897485 13.8984629,25.2892782 C13.8620817,24.3302171 14.3267694,23.6959175 15.1172347,23.2755883 C15.2925262,23.1825577 15.3520591,23.0903728 15.3437906,22.8967 C15.3222926,22.3528937 15.3313879,21.8099333 15.5372727,21.2940362 C15.9912115,20.158217 16.8114432,19.5010826 18.0037559,19.3378561 C18.1368781,19.31925 18.272481,19.3150214 18.407257,19.3116384 C18.5370719,19.306564 18.6660599,19.3107927 18.8115849,19.3107927 C18.9199018,18.9031495 19.0323529,18.5022721 19.1348819,18.097166 C19.5623615,16.4048546 19.9344425,14.6998572 20.2188777,12.9762536 C20.3701906,12.060325 20.4743732,11.1367847 20.605015,10.2166274 C20.7149856,9.43686167 20.7645963,8.65540452 20.7687306,7.86633577 C20.7761722,6.41844113 20.2999086,5.14815039 19.4507372,4.01317691 C18.7115365,3.02620667 17.8020053,2.24813245 16.6865894,1.73477261 C16.1450049,1.48612715 15.5827493,1.31782632 15.023801,1.26031648 L15.023801,1.26031648 Z" id="Fill-1" fill="#91C7EC" mask="url(#mask-2)"></path>
            </g>
        </g>
    </g>
</svg>