<?xml version="1.0" encoding="UTF-8"?>
<svg width="22px" height="22px" viewBox="0 0 22 22" version="1.1" xmlns="http://www.w3.org/2000/svg" xmlns:xlink="http://www.w3.org/1999/xlink">
    <title>Group 3</title>
    <defs>
        <polygon id="path-1" points="0.000176810738 0.0003 21.1369 0.0003 21.1369 21.1393 0.000176810738 21.1393"></polygon>
    </defs>
    <g id="Page-1" stroke="none" stroke-width="1" fill="none" fill-rule="evenodd">
        <g id="iPhone-11-Pro-Copy" transform="translate(-104.000000, -522.000000)">
            <g id="Group-3" transform="translate(104.000000, 522.000000)">
                <mask id="mask-2" fill="white">
                    <use xlink:href="#path-1"></use>
                </mask>
                <g id="Clip-2"></g>
                <path d="M14.7579065,12.7828 C14.7629,9.2788 11.8979,6.3938 8.3939,6.37470688 C4.8699,6.3558 1.9589,9.2468 1.95589584,12.7708 C1.9519,16.2668 4.8319,19.1668 8.3209,19.1778315 C11.8599,19.1888 14.7529,16.3148 14.7579065,12.7828 M13.5139,6.1458 C14.9119,4.7468 16.2759,3.3828 17.7019,1.9558 L14.6679,1.9558 L14.6679,-0.0002 L21.1369,-0.0002 L21.1369,6.4708 L19.2249,6.4708 L19.2249,3.5208 C17.8309,4.9188 16.4609,6.2928 15.0409,7.7168 C16.5919,9.8258 17.1229,12.2898 16.4289,14.9608 C15.9199,16.9218 14.7939,18.4938 13.1249,19.6478 C9.6559,22.0458 5.0009,21.5018 2.1489,18.3808 C-0.6291,15.3408 -0.7251,10.6368 1.9289,7.4248 C4.4979,4.3168 9.4289,3.1788 13.5139,6.1458" id="Fill-1" fill="#FCDE43" mask="url(#mask-2)"></path>
            </g>
        </g>
    </g>
</svg>