<?xml version="1.0" encoding="UTF-8"?>
<svg width="39px" height="33px" viewBox="0 0 39 33" version="1.1" xmlns="http://www.w3.org/2000/svg" xmlns:xlink="http://www.w3.org/1999/xlink">
    <title>Group 6</title>
    <defs>
        <polygon id="path-1" points="0.127281762 0.497538462 13.4365 0.497538462 13.4365 32.1538462 0.127281762 32.1538462"></polygon>
    </defs>
    <g id="Page-1" stroke="none" stroke-width="1" fill="none" fill-rule="evenodd">
        <g id="exercise-workout-especifico" transform="translate(-66.000000, -536.000000)">
            <g id="Group-6" transform="translate(66.000000, 536.000000)">
                <path d="M0,20.176139 C0.709517351,19.0807827 1.40373972,17.9751895 2.13959843,16.8977479 C2.32228853,16.6290273 2.62648878,16.269027 2.88990241,16.2562308 C4.90799068,16.1615388 6.92947784,16.1043823 8.94926556,16.1333871 C9.31124686,16.1385056 9.77519474,16.5249514 10.0037698,16.8636246 C10.7209346,17.9274169 11.3293351,19.0645742 12.0252569,20.144575 C12.1875537,20.3970871 12.5444367,20.7169925 12.7849079,20.6956655 C15.1904691,20.490926 17.590932,20.2213523 20.0143373,19.9671341 C20.1485933,18.2259954 21.4741587,16.9685536 22.2881918,15.4611591 C22.3612678,15.3255192 22.6493233,15.260685 22.8430598,15.2478888 C24.2654934,15.1489314 25.6887767,15.0286469 27.1129097,15.0013483 C28.5591355,14.9731966 28.9151688,15.3801164 28.9177179,16.7655203 C28.9202671,18.0886493 28.9007235,19.4143375 28.9933432,20.732348 C29.0392281,21.3909267 28.8548386,21.6579411 28.2234956,21.6954767 C26.2852811,21.8114957 25.5349771,23.5125397 24.3759572,24.6548155 C24.2221576,24.8058109 24.2663431,25.1931097 24.2756901,25.468655 C24.300332,26.1801247 24.3572633,26.8907414 24.4014488,27.6090358 C21.6933868,27.464012 21.2634278,25.1299817 20.3074912,23.5398383 C17.6708058,23.6805967 15.1292891,23.8170897 12.7993531,23.9407865 C11.9207412,25.6486551 11.037031,27.411974 10.0921408,29.1428758 C9.960434,29.3851509 9.53812247,29.5523548 9.22712445,29.5984212 C8.0647056,29.7690374 6.89548899,29.9268575 5.7237232,29.995104 C4.09140844,30.089796 1.84389539,28.8042026 0.856519149,26.7243905 C0.568463602,26.1178498 0.285506383,25.5087498 0,24.9013559 L0,20.176139 Z" id="Fill-1" fill="#91C7EC"></path>
                <g id="Group-5" transform="translate(25.000000, 0.000000)">
                    <mask id="mask-2" fill="white">
                        <use xlink:href="#path-1"></use>
                    </mask>
                    <g id="Clip-4"></g>
                    <path d="M8.8426625,9.81411538 L8.8426625,21.9327308 C8.9432875,21.9521923 9.2854125,22.0520385 9.6319125,22.0715 C10.9181625,22.1451154 11.9716625,22.6468846 12.7022875,23.6715769 C12.9490375,24.0176538 13.1704125,24.4720385 13.1695375,24.8773462 C13.1651625,26.4376538 13.0925375,27.9979615 12.9805375,29.5548846 C12.9569125,29.8925 12.7381625,30.2842692 12.4835375,30.5288077 C11.3434125,31.6211923 10.0160375,32.2481923 8.3334125,32.0781154 C7.4260375,31.9875769 6.4854125,31.9825 5.5832875,32.1051923 C3.5252875,32.3844231 2.0587875,31.4358846 0.7602875,30.0972692 C0.5625375,29.8925 0.4575375,29.5472692 0.4286625,29.2570385 C0.3394125,28.3389615 0.4321625,27.3895769 0.2247875,26.5011154 C-0.2030875,24.6624231 0.8390375,23.4947308 2.1445375,22.5656538 C2.7972875,22.1011154 3.7895375,22.0791154 4.6312875,21.8650385 C4.7992875,21.8227308 4.9786625,21.8201923 5.1169125,21.8041154 L5.1169125,9.79296154 C4.8229125,9.79296154 4.3941625,9.7405 3.9829125,9.80142308 C2.6852875,9.99603846 1.6711625,9.56788462 0.9755375,8.52119231 C0.6789125,8.07357692 0.4129125,7.54811538 0.3446625,7.03280769 C0.2274125,6.15788462 0.4111625,5.23642308 0.2309125,4.38096154 C-0.1260875,2.69626923 0.8687875,1.7325 2.0342875,0.836423077 C2.2880375,0.640961538 2.6966625,0.559730769 3.0361625,0.5555 C5.6069125,0.516576923 8.1785375,0.504730769 10.7501625,0.497109668 C11.9541625,0.493730769 13.4539125,1.99396154 13.4364125,3.17096154 C13.4197875,4.3065 13.3331625,5.44373077 13.3795375,6.57588462 C13.4206625,7.57688462 13.0619125,8.29188462 12.3006625,8.9815 C11.6295375,9.58903846 10.9829125,9.93765385 10.0650375,9.82257692 C9.6791625,9.7735 9.2801625,9.81411538 8.8426625,9.81411538" id="Fill-3" fill="#91C7EC" mask="url(#mask-2)"></path>
                </g>
            </g>
        </g>
    </g>
</svg>