<?xml version="1.0" encoding="UTF-8"?>
<svg width="73px" height="75px" viewBox="0 0 73 75" version="1.1" xmlns="http://www.w3.org/2000/svg" xmlns:xlink="http://www.w3.org/1999/xlink">
    <title>Group 6</title>
    <defs>
        <polygon id="path-1" points="9.21741533e-05 0.902 72.047 0.902 72.047 72.9996185 9.21741533e-05 72.9996185"></polygon>
    </defs>
    <g id="Page-1" stroke="none" stroke-width="1" fill="none" fill-rule="evenodd">
        <g id="iPhone-11-Pro-Copy" transform="translate(-154.000000, -160.000000)">
            <g id="Group-6" transform="translate(154.000000, 160.000000)">
                <g id="Group-3" transform="translate(0.000000, 0.098300)">
                    <mask id="mask-2" fill="white">
                        <use xlink:href="#path-1"></use>
                    </mask>
                    <g id="Clip-2"></g>
                    <path d="M15.0681,61.8616 C19.7421,53.8116 26.6131,49.2236 36.0241,49.2246 C45.4291,49.2256 52.2971,53.8216 56.9821,61.8546 C66.2671,54.3066 71.2951,40.6826 67.1501,27.2996 C62.8991,13.5716 50.0741,4.1916 35.7581,4.3326 C21.3471,4.4746 8.7531,13.9926 4.7461,27.7856 C0.7201,41.6416 6.4081,54.8156 15.0681,61.8616 M72.0471078,36.9296 C72.0601,56.7916 55.9161,72.9806 36.0761,72.9996185 C16.1721,73.0196 -0.0129,56.8406 9.21741533e-05,36.9376 C0.0121,17.0636 16.1371,0.8926 35.9341,0.901596245 C55.8861,0.9106 72.0341,17.0206 72.0471078,36.9296" id="Fill-1" fill="#FCDE43" mask="url(#mask-2)"></path>
                </g>
                <path d="M36.0047,46.7813671 C28.4157,46.7432 22.3287,40.5912 22.3655322,32.9972 C22.4027,25.4822 28.5687,19.4042 36.1217,19.438058 C43.6587,19.4722 49.7347,25.6542 49.6847,33.2372 C49.6347,40.7052 43.4607,46.8182 36.0047,46.7813671" id="Fill-4" fill="#FCDE43"></path>
            </g>
        </g>
    </g>
</svg>