<svg xmlns="http://www.w3.org/2000/svg" viewBox="0 0 210.87 188.5"><defs><style>.cls-1{fill:#231f20;}</style></defs><title>slidersAsset 12</title><g id="Layer_2" data-name="Layer 2"><g id="Layer_1-2" data-name="Layer 1"><path class="cls-1" d="M57.5,188.5A57.5,57.5,0,1,1,115,131,57.56,57.56,0,0,1,57.5,188.5Zm0-107A49.5,49.5,0,1,0,107,131,49.55,49.55,0,0,0,57.5,81.51Zm0,85.55A36.06,36.06,0,1,1,93.55,131,36.11,36.11,0,0,1,57.5,167.06Zm0-64.11A28.06,28.06,0,1,0,85.55,131,28.09,28.09,0,0,0,57.5,103Zm95.87,12a57.5,57.5,0,1,1,57.5-57.49A57.56,57.56,0,0,1,153.37,115Zm0-107a49.5,49.5,0,1,0,49.5,49.5A49.55,49.55,0,0,0,153.37,8Zm0,85.55a36.06,36.06,0,1,1,36.06-36A36.09,36.09,0,0,1,153.37,93.55Zm0-64.11A28.06,28.06,0,1,0,181.43,57.5,28.09,28.09,0,0,0,153.37,29.44Z"/></g></g></svg>