<?xml version="1.0" encoding="UTF-8"?>
<svg width="42px" height="26px" viewBox="0 0 42 26" version="1.1" xmlns="http://www.w3.org/2000/svg" xmlns:xlink="http://www.w3.org/1999/xlink">
    <title>Group 3</title>
    <defs>
        <polygon id="path-1" points="0 0 42 0 42 26 0 26"></polygon>
    </defs>
    <g id="Page-1" stroke="none" stroke-width="1" fill="none" fill-rule="evenodd">
        <g id="exercise-workout-especifico" transform="translate(-272.000000, -542.000000)">
            <g id="Group-3" transform="translate(272.000000, 542.000000)">
                <mask id="mask-2" fill="white">
                    <use xlink:href="#path-1"></use>
                </mask>
                <g id="Clip-2"></g>
                <path d="M17.014172,14.8095544 C17.1077553,14.76971 17.1630141,14.7546576 17.2102514,14.7263238 C19.5783559,13.319372 21.948243,11.9150765 24.3101086,10.4983849 C24.5569904,10.3496323 24.7824818,10.144212 24.9732135,9.92816657 C26.5935425,8.08735298 26.426875,5.32126271 24.6220531,3.59201358 C22.5222209,1.581197 19.3751464,1.26155596 17.1523188,2.4329828 C15.2360882,3.44326096 13.2654901,4.35171443 11.3198476,5.3070958 C11.1959611,5.36730519 11.0765309,5.4363689 10.8751039,5.5435062 C13.0408901,6.03226479 14.8314516,7.00624023 16.0578392,8.79746962 C17.3073998,10.6196891 17.5248697,12.6367037 17.014172,14.8095544 M39.1354947,15.1849777 L38.684512,15.1849777 C32.5525741,15.1849777 26.4206361,15.1823214 20.2878069,15.193832 C20.0534029,15.1947174 19.793152,15.2841461 19.5872686,15.4054503 C17.8849428,16.4033324 16.1933123,17.4189232 14.4972254,18.4283159 C13.5177196,19.0109303 12.4704773,19.3580198 11.3171738,19.3890099 C7.87865395,19.4819803 5.44816051,17.0762609 5.70662883,13.8169849 C5.87953522,11.6441342 7.39558558,10.0406165 9.56404561,9.86353002 C12.0212771,9.66253691 14.1398261,11.3962132 13.6175418,14.1383968 C13.2031012,16.3139038 10.6745681,17.3082442 8.90450578,15.9871793 C8.69416604,15.8295723 8.50699933,15.5843076 8.41608979,15.3399283 C8.27616039,14.9636196 8.47134853,14.5625188 8.81092242,14.3730363 C9.18079949,14.1658452 9.54087259,14.2012625 9.86440362,14.4730902 C10.1576315,14.7201258 10.4446204,14.9689322 10.8724301,14.8715347 C11.6291183,14.7015317 12.202205,13.7027641 11.9642359,12.9678554 C11.6202056,11.9053367 10.2931045,11.2439189 9.24051458,11.6104878 C8.1121667,12.0045051 7.22357046,13.4088006 7.35547842,14.5926235 C7.58096975,16.6308885 9.93570523,18.145863 12.0310811,17.6331978 C14.5515928,17.0178224 16.8769164,13.4451034 14.8439294,10.176973 C13.1317996,7.42239338 8.97580738,5.65152893 5.22177792,8.40876488 C2.52657728,10.3877059 1.42853258,13.1741611 1.89288427,16.4582292 C2.39021296,19.9804786 4.52836982,22.2436434 7.82963409,23.4540292 C9.79488456,24.1730002 11.8626311,24.2464911 13.9303776,24.2376367 C19.5578567,24.2146155 25.1844446,24.1818545 30.8110324,24.1659167 C31.1969523,24.1650313 31.4563119,24.057894 31.7076501,23.7639305 C33.2798504,21.9266586 34.8716587,20.1053246 36.4554456,18.2777924 C37.3235427,17.277254 38.1907484,16.2749448 39.1354947,15.1849777 M23.0988726,13.4114569 L27.2111927,13.4114569 L40.7246292,13.4114569 C40.8084086,13.4114569 40.8930792,13.4149987 40.9768586,13.4105715 C41.3957555,13.3875503 41.7192866,13.5433863 41.9064533,13.9241222 C42.1060978,14.331421 41.9634946,14.6909065 41.6925485,15.0034641 C39.4920027,17.5358002 37.2870006,20.0645947 35.083781,22.5942745 C34.248661,23.5540831 33.4099759,24.5103499 32.5882249,25.481669 C32.3021272,25.8190187 31.9705747,25.9615733 31.5276135,25.9615733 C26.7147552,25.9606879 21.9018969,25.9730839 17.0890387,25.9783965 C15.2512398,25.9801674 13.4116584,26.0394913 11.5774247,25.9536044 C8.72090414,25.8207896 6.03461621,25.102704 3.78505059,23.2300149 C-1.29251489,19.0038469 -1.23636488,11.3962132 3.80198473,7.24265064 C4.34565946,6.7937365 4.97935246,6.43336559 5.61393674,6.11903715 C9.13623599,4.37119394 12.6897297,2.68621641 16.1968773,0.906497642 C18.2316469,-0.125916331 20.3074148,-0.242793385 22.4375502,0.384978062 C24.5293611,1.00123889 26.238817,2.15495708 27.2227792,4.17728428 C28.4482755,6.69456809 27.8894492,9.7227463 25.8154637,11.6140295 C25.4188486,11.9752859 24.9108246,12.2161234 24.4482555,12.5038889 C23.9972728,12.7836855 23.5382688,13.0519715 23.083721,13.3237992 C23.0881774,13.3530184 23.093525,13.3822377 23.0988726,13.4114569" id="Fill-1" fill="#91C7EC" mask="url(#mask-2)"></path>
            </g>
        </g>
    </g>
</svg>